<svg width="176" height="121" viewBox="0 0 176 121" fill="none" xmlns="http://www.w3.org/2000/svg">
<rect x="2.5" y="2.5" width="171" height="116" rx="17.5" fill="white" stroke="#13B6F1" stroke-width="5"/>
<path d="M49 58.1724C31 45.6724 20 42.6724 2 56.1724V68.1724C20 54.6724 31 57.6724 49 70.1724C67 82.6724 86 70.1724 99.5 61.1724C110.5 53.8391 130 56.1724 144 68.1724C152.148 75.1568 168.5 74.1724 174.5 64.1724V52.1724C168.5 62.1724 152.148 63.1568 144 56.1724C130 44.1724 110.5 41.8391 99.5 49.1724C86 58.1724 67 70.6724 49 58.1724Z" fill="#13B6F1"/>
<path d="M49 39.1724C31 26.6724 20 23.6724 2 37.1724V49.1724C20 35.6724 31 38.6724 49 51.1724C67 63.6724 86 51.1724 99.5 42.1724C110.5 34.8391 130 37.1724 144 49.1724C152.148 56.1568 168.5 55.1724 174.5 45.1724V33.1724C168.5 43.1724 152.148 44.1568 144 37.1724C130 25.1724 110.5 22.8391 99.5 30.1724C86 39.1724 67 51.6724 49 39.1724Z" fill="#13B6F1"/>
<path d="M49 19.1724C31 6.67242 20 3.67242 2 17.1724V29.1724C20 15.6724 31 18.6724 49 31.1724C67 43.6724 86 31.1724 99.5 22.1724C110.5 14.8391 130 17.1724 144 29.1724C152.148 36.1568 168.5 35.1724 174.5 25.1724V13.1724C168.5 23.1724 152.148 24.1568 144 17.1724C130 5.17242 110.5 2.83908 99.5 10.1724C86 19.1724 67 31.6724 49 19.1724Z" fill="#13B6F1"/>
<path d="M49 78.1724C31 65.6724 20 62.6724 2 76.1724V88.1724C20 74.6724 31 77.6724 49 90.1724C67 102.672 86 90.1724 99.5 81.1724C110.5 73.8391 130 76.1724 144 88.1724C152.148 95.1568 168.5 94.1724 174.5 84.1724V72.1724C168.5 82.1724 152.148 83.1568 144 76.1724C130 64.1724 110.5 61.8391 99.5 69.1724C86 78.1724 67 90.6724 49 78.1724Z" fill="#13B6F1"/>
<path d="M49 97.1724C31 84.6724 20 81.6724 2 95.1724V107.172C20 93.6724 31 96.6724 49 109.172C67 121.672 86 109.172 99.5 100.172C110.5 92.8391 130 95.1724 144 107.172C152.148 114.157 168.5 113.172 174.5 103.172V91.1724C168.5 101.172 152.148 102.157 144 95.1724C130 83.1724 110.5 80.8391 99.5 88.1724C86 97.1724 67 109.672 49 97.1724Z" fill="#13B6F1"/>
<mask id="mask0_70_376" style="mask-type:alpha" maskUnits="userSpaceOnUse" x="0" y="0" width="176" height="121">
<rect x="2.5" y="2.5" width="171" height="116" rx="17.5" fill="white" stroke="#FDC921" stroke-width="5"/>
</mask>
<g mask="url(#mask0_70_376)">
<path d="M48.8927 0.115234C29.6252 -10.1545 19.9667 -15.3026 2 -1.82758V10.1724C20 -3.32758 31 -0.327579 49 12.1724C67 24.6724 86 12.1724 99.5 3.17241C110.5 -4.16092 130 -1.82757 144 10.1724C152.148 17.1568 168.5 16.1724 174.5 6.17239V-5.82761C168.5 4.17239 152.148 5.15682 144 -1.82758C130 -13.8276 110.5 -16.1609 99.5 -8.82759C86 0.172403 66.5 9.5 49 0.172417L48.8927 0.115234Z" fill="#13B6F1"/>
<path d="M49 117.172C31 104.672 20 101.672 2 115.172V127.172C20 113.672 31 116.672 49 129.172C67 141.672 86 129.172 99.5 120.172C110.5 112.839 130 115.172 144 127.172C152.148 134.157 168.5 133.172 174.5 123.172V111.172C168.5 121.172 152.148 122.157 144 115.172C130 103.172 110.5 100.839 99.5 108.172C86 117.172 67 129.672 49 117.172Z" fill="#13B6F1"/>
</g>
</svg>
