<svg width="240" height="563" viewBox="0 0 240 563" fill="none" xmlns="http://www.w3.org/2000/svg">
<path fill-rule="evenodd" clip-rule="evenodd" d="M140.515 409.516L140.39 408.953V408.516L139.64 409.078L139.515 409.328L139.703 410.078L139.64 410.578L139.015 410.828L138.703 410.766L138.64 410.141V409.578L138.89 408.828L138.64 407.703L138.515 407.453L138.39 407.016L138.203 406.703L138.078 406.516L137.89 406.766L137.953 407.078L138.328 407.703L138.453 408.391V408.766L138.265 408.953L138.078 409.016L137.89 408.953L137.765 409.203L137.89 409.391L137.328 409.828L137.14 409.953V410.328L137.453 410.578L137.515 410.766L137.14 411.453L137.203 413.078L137.328 413.641L137.578 413.453L137.89 412.703L137.953 412.203L138.015 411.453L138.328 411.203L138.64 411.453L138.703 411.953L138.828 413.953L138.953 415.203L138.765 415.953L138.578 416.203L138.14 415.953L137.703 415.891L137.39 417.453L136.953 415.703L135.328 414.953L135.203 413.953L131.89 414.016L130.265 411.703L130.515 407.953L129.39 405.953L129.078 403.891L129.953 402.766L130.39 403.453L130.953 403.203H131.578L132.078 403.453L132.765 403.766L132.703 403.453L131.953 402.328L131.89 402.016V400.953L131.703 400.703L131.64 400.391L132.015 400.266L132.14 400.578L132.328 400.641L132.89 401.016H133.14L133.765 401.703L135.39 402.641H135.89L136.14 402.953L136.39 403.766L136.765 404.641L136.953 404.953L137.265 405.078L137.328 404.766L137.015 404.016L136.89 403.078L136.828 402.891L136.64 402.703L136.515 402.453L136.64 402.078L137.078 401.891L137.265 402.078L137.703 402.016V401.766L138.328 401.891L138.828 402.203L139.015 402.641L139.453 403.016L139.89 402.703L140.39 402.828L140.89 402.766L141.64 402.703L142.015 402.953L142.203 403.391L142.328 403.703L142.515 403.391L142.453 402.266L142.328 402.016L142.453 401.578L142.89 401.328L143.265 401.016L143.64 400.828L144.078 400.641L144.578 400.578L144.765 400.391L145.203 400.328L145.703 400.141L146.203 400.078L146.515 399.891L146.265 399.703L146.765 399.641L147.14 400.016L147.453 400.078L147.765 399.891L147.703 399.641L147.453 399.203L146.89 398.766L146.078 397.828L146.64 397.203L146.765 396.703V396.141L146.828 395.891L147.14 395.578L147.015 395.453L147.64 394.891L147.89 394.766L148.015 395.203L148.078 395.391H148.328L148.828 395.078L148.953 395.203V395.453V395.891L148.828 395.953L148.39 395.828L148.265 396.078L148.203 396.578V396.953L148.64 397.141H148.953L149.265 397.328L150.453 397.203L150.89 397.078L151.078 396.828L150.89 396.641L150.453 396.703L150.39 396.516L150.64 396.391L150.703 396.203L150.39 395.828L150.203 395.578H149.828H149.578L149.515 395.391L149.64 395.141H149.953L150.328 395.266L150.765 395.141L150.953 394.953L151.078 394.641L150.953 394.391L150.703 394.328L150.453 394.203L150.64 393.953H150.89L151.078 394.141L151.265 394.266L151.515 394.141H151.765L151.89 394.391L152.265 394.328L152.515 394.391L152.828 394.328L153.203 393.641V393.391L153.328 393.203L153.703 393.141L154.078 392.828L154.328 392.328L154.515 392.203L155.328 391.266L155.703 391.203L155.89 390.953L156.515 390.453L157.14 390.016L157.64 389.766L158.39 389.203L159.453 387.328L159.703 385.141L162.078 383.766L165.328 384.016L166.515 383.203L166.328 381.391L164.265 380.766L164.14 378.953L165.64 379.016L166.39 376.766L165.078 375.703L163.078 374.266L161.578 371.641L160.578 368.016L159.765 367.453L160.015 364.766L158.328 363.203L158.14 365.266L157.578 366.578L156.203 366.203L154.14 365.766L153.765 367.766L153.328 369.766L151.703 370.328L153.015 371.953L152.203 372.328L151.828 377.516L150.328 379.078L147.078 379.953L146.14 383.203H145.703L145.265 383.328L145.078 383.203L144.515 383.641H144.078L143.39 384.266L143.078 384.453L142.64 384.516L141.015 385.141L141.14 385.453L140.765 385.641L140.515 385.453H140.078L139.578 385.703L139.328 386.328L138.953 386.266L138.828 385.766L138.328 385.641L138.015 385.266H137.453L136.828 385.141L136.953 385.953L136.39 386.203L135.765 386.766L135.953 387.016L135.64 387.516L135.39 387.578L135.015 387.891L134.765 388.578L134.828 389.266L135.64 390.078L135.578 390.641V390.891L135.703 391.141L135.453 391.828L135.14 392.016L134.89 392.328L134.765 392.578L134.89 392.828L135.64 393.703L135.828 393.641L135.703 393.328L135.828 393.078H136.078L136.265 393.266V394.078L136.39 394.391H136.703L136.828 394.141L136.64 393.891L136.578 393.641L136.89 393.266L137.265 393.328L137.765 393.641L138.14 393.891L138.203 394.266L138.39 394.516L138.453 395.203L138.828 395.328L139.078 395.391V395.641L139.328 395.703L139.578 395.328L139.515 394.516L139.64 393.828L139.953 393.766L140.14 394.391L140.453 394.141L140.64 394.391L140.578 394.641L140.515 394.703L140.453 394.891L140.078 396.141L140.015 396.703L140.14 397.016L140.328 397.266L140.578 397.578L141.265 398.328L141.828 398.891L142.64 399.328L142.828 399.703L143.015 399.891L143.453 399.953L143.765 400.328H144.078L144.328 400.203L144.515 399.766V399.328L144.578 399.141L144.703 399.203L145.078 399.641L145.453 399.828H145.828L146.265 399.703L146.203 400.078L146.515 400.203L147.015 400.328H147.39L147.89 400.203L148.578 399.891L149.015 399.641H149.14V400.141L149.203 400.828L149.39 401.016H150.203L150.578 400.953L150.89 401.078L151.078 401.453L151.203 401.766L151.703 401.828L152.015 401.953L152.078 402.203L151.89 402.328L151.453 402.266L150.703 402.078H150.328L150.265 402.203L150.328 402.328L150.515 402.516L151.015 402.578L152.14 403.328L152.453 403.766L152.765 403.891L153.14 403.953L153.515 404.641L153.328 404.891L152.89 405.203L152.703 405.641L153.015 405.953L153.703 406.203L154.015 406.078L154.328 405.953L154.515 406.078L154.078 407.141L153.765 407.328L153.515 407.453H153.328L153.203 407.266H153.015L152.515 407.766L152.328 407.828L152.015 407.766L151.765 407.891L151.14 408.203L150.828 408.766L151.765 408.703L151.828 408.953L151.515 409.328L150.515 409.641L150.015 409.953L149.703 410.266L149.453 410.391L149.39 410.203V409.953L149.703 409.641L149.953 409.453V409.328L149.828 409.141L149.953 408.891L150.203 408.766L150.39 408.703L150.578 408.516V408.328L150.328 408.141L149.89 408.203L149.578 408.391L149.453 408.703L149.578 408.891L149.515 409.141L149.14 409.391L148.203 409.828L148.078 410.016L147.515 410.203L147.328 410.453L147.203 410.828L146.953 410.953L146.453 411.016L146.14 411.141L146.015 411.516L145.953 411.891L145.828 412.078L145.578 412.016L145.515 411.641L145.265 411.578L145.203 411.828L145.39 412.828L145.453 413.203L145.328 413.391H145.203L145.078 413.016L144.953 412.828L144.828 413.266L144.765 413.641L144.39 414.641L144.64 415.953L144.39 416.891L143.953 417.266L143.453 417.766L143.203 418.766L142.828 419.141L142.328 421.141L141.015 421.578V421.141L141.39 420.641L141.64 420.203L141.703 419.578L141.265 418.453L140.703 417.516L140.203 417.016L140.078 416.578L140.203 416.328V414.828L139.953 414.453L140.015 414.141L140.203 413.703L139.953 412.516L139.703 411.828V411.453L139.953 410.953L140.203 410.578L140.078 410.141L140.203 409.641L140.515 409.516Z" fill="#E9F0FC" stroke="black" stroke-width="0.4" stroke-linecap="square"/>
<path fill-rule="evenodd" clip-rule="evenodd" d="M152.328 398.391L153.078 398.328L153.515 398.453L154.203 399.078V399.391L153.89 399.578L154.078 399.703L154.015 399.891L153.64 400.453L153.515 400.828L153.703 401.078L154.328 400.953L154.89 401.078L155.39 401.391L155.578 401.641L156.203 401.953H156.39L156.515 401.766L156.203 401.516V401.328L157.703 401.078L159.14 400.641L159.265 400.828L158.265 402.078L158.328 402.328L157.953 402.391L157.578 402.516L157.39 402.766L156.828 402.953V403.391L156.515 403.578L156.203 403.828L156.015 404.016L155.078 403.766L154.828 403.203L154.39 403.078L153.828 402.766L153.64 402.203L153.265 402.016L152.828 401.391H152.14L151.89 401.203L152.015 401.016L152.203 400.828L152.078 400.266L152.14 400.078L152.453 399.828L152.64 399.578L152.39 399.453L152.015 399.516L151.765 399.391L151.203 399.328L151.14 399.953L151.015 400.266L150.765 400.516L150.328 400.766L149.828 400.703L149.578 400.578L149.515 400.391V400.078L149.578 399.141L150.078 398.828L150.265 398.703L150.328 398.391L151.203 398.328L151.578 398.391L152.015 398.328L152.328 398.391Z" fill="#E9F0FC" stroke="black" stroke-width="0.3" stroke-linecap="square"/>
<path fill-rule="evenodd" clip-rule="evenodd" d="M154.39 396.766L154.515 397.078V397.453L154.39 397.828L154.328 398.141L154.39 398.328L154.515 398.516L154.64 398.703V399.078L154.453 400.141V400.453L154.703 400.641H155.015L155.765 401.078L156.14 400.953L157.203 400.766L157.703 400.641L157.953 400.328L158.14 399.828V399.516L157.953 399.078L157.453 398.828L156.89 398.641L156.39 398.766L156.265 398.453L156.703 398.391L157.14 398.328L157.39 398.391L157.578 398.328L157.828 398.141V397.891L157.64 397.641H157.39L157.015 397.891L155.578 397.016L155.265 396.016L155.14 395.891L154.703 395.828H154.453L154.203 395.953L154.015 395.891L153.828 395.953L153.89 396.203L154.015 396.391L154.265 396.516L154.39 396.766Z" fill="#E9F0FC" stroke="black" stroke-width="0.3" stroke-linecap="square"/>
<path fill-rule="evenodd" clip-rule="evenodd" d="M140.39 400.141L140.515 400.453L140.328 400.766L139.89 400.953L139.328 400.766L139.015 400.328L138.89 400.141H138.515L138.14 399.516L137.578 398.641L137.203 397.766L137.078 397.078L136.515 395.953L136.39 395.516L136.328 395.328L136.39 395.203L136.64 395.016L136.953 395.391L137.265 395.578L137.703 396.078L138.078 396.266L138.265 396.141L138.703 396.328L139.14 396.766L139.015 396.828H138.828L138.578 396.953V397.203L138.828 397.766L139.015 397.828L139.203 397.703L139.14 397.453L139.265 397.328L139.828 397.953L139.89 398.141L140.14 398.516L140.265 399.078L140.203 399.641V399.953L140.39 400.141Z" fill="#E9F0FC" stroke="black" stroke-width="0.3" stroke-linecap="square"/>
<path fill-rule="evenodd" clip-rule="evenodd" d="M136.765 398.703L136.828 399.016L136.703 399.328L137.015 399.453L137.078 400.016L137.015 400.266L137.078 400.641L137.203 400.828L137.515 401.016L138.328 401.453L139.203 402.078H140.015L140.265 402.141L140.453 402.266L141.015 402.453L141.578 402.203L141.64 402.078L141.578 401.766L140.89 401.453L140.953 401.328L140.703 401.266L140.14 401.453L139.89 401.391L139.39 401.203L138.64 400.766L138.203 400.391L137.64 400.328L137.203 398.766L136.265 396.016H136.015L135.64 396.141L135.328 396.266L135.015 396.578L135.078 397.016L135.203 397.391L135.265 397.641L135.515 397.766H135.703L135.89 397.703L136.203 398.578L136.453 398.766L136.765 398.703Z" fill="#E9F0FC" stroke="black" stroke-width="0.2" stroke-linecap="square"/>
<path fill-rule="evenodd" clip-rule="evenodd" d="M156.765 394.266H157.015L157.14 394.078V393.516L156.953 393.016L157.078 392.703L157.265 392.578H157.515L157.89 392.391L158.078 392.016L158.39 391.453L158.578 391.141L158.89 391.078V390.891L158.64 390.766L158.578 390.328H158.328L158.265 390.203L158.515 389.953L158.265 389.828L157.953 390.078L157.703 390.266L156.828 390.828L156.765 391.203L156.39 391.516L156.265 391.703L156.328 391.953L156.078 392.203L156.14 392.328H156.453L156.578 392.453L156.515 392.766L156.265 393.078L156.015 392.953L155.953 392.703L155.703 392.641L155.453 392.766L155.328 393.141L155.515 393.266L155.578 393.453V393.828L155.64 394.141L155.89 394.391L156.078 394.641L156.015 395.141L156.078 395.391L156.39 395.328L156.64 394.953V394.453L156.765 394.266Z" fill="#E9F0FC" stroke="black" stroke-width="0.3" stroke-linecap="square"/>
<path fill-rule="evenodd" clip-rule="evenodd" d="M153.828 412.578L154.078 412.266L154.203 410.766L154.765 410.203V409.703L155.265 409.203L155.39 408.828L154.953 408.016V408.078L153.828 409.328L153.015 409.703L152.89 409.891L153.078 409.953V410.078L152.515 410.891L152.578 411.078L152.89 411.016L152.953 411.141L152.828 411.266L152.64 411.453L152.453 411.703L152.578 412.203L152.953 412.453L153.453 412.266L153.578 412.578H153.828Z" fill="#E9F0FC" stroke="black" stroke-width="0.3" stroke-linecap="square"/>
<path fill-rule="evenodd" clip-rule="evenodd" d="M164.578 386.328L163.39 385.766L162.14 386.516L161.203 388.203L160.14 389.141L160.578 389.453L162.265 388.141L163.265 388.266L163.39 387.266L164.578 387.141V386.328Z" fill="#E9F0FC" stroke="black" stroke-width="0.3" stroke-linecap="square"/>
<path fill-rule="evenodd" clip-rule="evenodd" d="M150.078 416.641L150.328 416.516L150.515 416.266L150.765 416.141L151.203 416.203L151.89 415.828L151.64 415.578L151.328 415.391L151.515 415.078L152.578 414.453L152.765 414.203V413.766L152.64 413.641L152.39 413.828L152.14 414.141L151.453 414.578L151.078 414.453L149.828 415.266L149.578 415.453L149.015 415.891L148.515 416.328V416.703L148.703 416.641L149.015 416.453L149.39 416.078L149.515 416.266V416.578L150.078 416.641Z" fill="#E9F0FC" stroke="black" stroke-width="0.3" stroke-linecap="square"/>
<path fill-rule="evenodd" clip-rule="evenodd" d="M146.89 414.453L147.078 414.266L147.265 413.891L147.453 413.766L147.64 413.891L147.703 414.203L147.89 414.391L148.265 414.328L148.515 414.078L148.265 413.578L148.203 413.266L148.39 413.078L148.64 413.203L148.765 413.016L148.703 412.703L148.89 412.328H149.203L149.515 412.141L149.578 411.953H149.328L148.64 411.766L148.078 412.078H147.39L147.203 412.203L147.015 412.453V412.578L147.078 412.891L147.015 413.141L146.578 413.578L146.515 413.766L146.578 414.203L146.453 414.516L146.578 414.578L146.89 414.453Z" fill="#E9F0FC" stroke="black" stroke-width="0.3" stroke-linecap="square"/>
<path fill-rule="evenodd" clip-rule="evenodd" d="M159.828 397.891L160.078 398.266L160.14 398.766V399.328L160.015 399.703L159.703 399.953L159.14 400.328L158.953 400.391L158.765 400.328L158.89 399.578V399.141L158.703 398.578L158.078 397.641L158.765 397.328L159.078 397.703L159.328 397.516L159.828 397.891Z" fill="#E9F0FC" stroke="black" stroke-width="0.3" stroke-linecap="square"/>
<path fill-rule="evenodd" clip-rule="evenodd" d="M134.14 398.203L134.328 398.516L134.265 398.891L134.453 399.328L134.828 399.641L135.078 399.703L135.203 399.453L135.14 398.953L135.203 398.703L135.328 398.453L135.265 398.141L135.078 397.953L134.765 397.078L134.515 396.828L134.453 396.516L134.14 396.453L133.703 396.641V396.953V397.141V397.453V397.641V397.828L134.14 398.203Z" fill="#E9F0FC" stroke="black" stroke-width="0.3" stroke-linecap="square"/>
<path fill-rule="evenodd" clip-rule="evenodd" d="M147.015 397.328L147.14 397.203L147.453 397.266L147.89 397.453L148.453 397.703L149.078 397.828H149.265L149.578 397.766L149.89 397.828V398.078L149.765 398.141H149.453L149.328 398.266L149.39 398.391L149.515 398.578L149.39 398.766L149.14 398.953L148.765 399.141H148.328L147.828 399.016L147.515 398.516L147.453 398.266V397.953L147.265 397.766L147.015 397.703L146.953 397.516L147.015 397.328Z" fill="#E9F0FC" stroke="black" stroke-width="0.3" stroke-linecap="square"/>
<path fill-rule="evenodd" clip-rule="evenodd" d="M142.578 399.766V400.016L142.453 400.141L142.39 400.328L142.328 400.703L142.015 401.016L141.703 400.953L141.39 400.516L140.828 399.828V399.578L140.953 399.203L141.078 399.016L141.515 398.953L141.828 399.078L142.14 399.641L142.328 399.766H142.578Z" fill="#E9F0FC" stroke="black" stroke-width="0.2" stroke-linecap="square"/>
<path fill-rule="evenodd" clip-rule="evenodd" d="M162.515 396.016V395.703L162.453 395.391V395.078L162.578 394.828L162.89 394.516L163.265 394.328L163.515 394.266L163.828 394.328L163.89 394.516L163.953 394.828L163.765 395.016L163.515 395.078V395.516L163.203 395.891L162.89 396.141L162.765 396.328L162.703 396.516L162.39 396.766L162.203 396.703L162.265 396.391L162.515 396.016Z" fill="#E9F0FC" stroke="black" stroke-width="0.2" stroke-linecap="square"/>
<path fill-rule="evenodd" clip-rule="evenodd" d="M160.328 400.953L160.89 400.516L161.203 400.453L161.64 400.828L161.203 401.328L161.078 401.891L160.765 402.078L160.453 401.953L160.14 402.078H159.89V401.703L160.078 401.203L160.328 400.953Z" fill="#E9F0FC" stroke="black" stroke-width="0.2" stroke-linecap="square"/>
<path fill-rule="evenodd" clip-rule="evenodd" d="M164.265 396.453L164.39 397.141L164.265 397.391L163.89 397.328L163.765 397.141V396.391L163.64 396.141L163.953 395.953L164.015 395.641L164.203 395.453L164.578 395.516L164.64 395.828L164.265 396.453Z" fill="#E9F0FC" stroke="black" stroke-width="0.2" stroke-linecap="square"/>
<path fill-rule="evenodd" clip-rule="evenodd" d="M159.203 404.391L159.328 404.078L159.578 403.828L159.765 403.953L159.703 404.391L160.203 404.141L160.515 404.203L160.39 404.578L160.14 404.703L159.765 404.828L159.39 405.016L159.015 405.203L158.703 405.516L158.765 405.203L159.203 404.391Z" fill="#E9F0FC" stroke="black" stroke-width="0.2" stroke-linecap="square"/>
<path fill-rule="evenodd" clip-rule="evenodd" d="M163.703 398.016L163.765 398.266L163.515 398.453V398.703L163.265 399.203L163.328 399.453L163.578 399.766L163.39 399.953L162.703 399.891L162.828 399.641L162.89 399.141L162.953 398.578L163.078 398.266L163.328 397.953H163.515L163.703 398.016Z" fill="#E9F0FC" stroke="black" stroke-width="0.2" stroke-linecap="square"/>
<path fill-rule="evenodd" clip-rule="evenodd" d="M151.203 395.391L151.078 395.828L151.328 396.016L151.765 395.578L152.203 395.453V395.266L151.89 395.141L151.64 394.891L151.453 394.953L151.265 395.141L151.203 395.391Z" fill="#E9F0FC" stroke="black" stroke-width="0.2" stroke-linecap="square"/>
<path fill-rule="evenodd" clip-rule="evenodd" d="M130.016 346.141L129.203 353.578L127.266 355.391L127.328 360.266L125.36 361.953L121.391 361.297L120.578 362.297L120.953 363.172L119.266 364.828L117.703 364.891L118.047 368.235L117.203 368.578L117.828 371.391L117.203 372.641L119.266 374.297L119.485 376.235L119.047 377.172L120.203 378.766H120.141L119.516 380.453L118.391 382.016L119.453 384.016L121.016 386.328L121.828 390.703L123.266 392.141L124.703 391.266L125.953 390.891L128.328 392.016L130.953 394.203L132.703 394.266L132.641 392.141L131.141 389.078L131.328 388.703L132.016 388.391L132.141 389.016L132.391 389.578L132.953 390.453L133.641 391.328L134.391 391.828L134.766 391.766L135.016 391.328L135.266 390.703L135.578 390.641L135.641 390.078L134.828 389.266L134.766 388.578L135.016 387.891L135.391 387.578L135.641 387.516L135.953 387.016L135.766 386.766L136.391 386.203L136.953 385.953L136.828 385.141L137.453 385.266H138.016L138.328 385.641L138.828 385.766L138.953 386.266L139.328 386.328L139.578 385.703L140.078 385.453H140.516L140.766 385.641L141.141 385.453L141.016 385.141L142.641 384.516L143.078 384.453L143.391 384.266L144.078 383.641H144.516L145.078 383.203L145.266 383.328L145.703 383.203H146.141L147.078 379.953L150.328 379.078L151.828 377.516L152.203 372.328L153.016 371.953L151.703 370.328L153.328 369.766L153.766 367.766L154.141 365.766L154.016 363.516H155.266L155.828 362.391L155.016 360.828L153.328 359.453L155.016 359.266L155.266 357.953L153.828 357.453L152.328 355.078L151.516 351.516L150.828 351.891L150.766 353.641L151.641 357.141L150.953 358.016L148.953 357.516L145.391 354.453L143.203 351.578L142.953 348.953L141.266 347.891L138.953 348.953L137.828 350.891L136.266 351.203L135.141 348.328L135.203 346.141H130.016Z" fill="#E9F0FC" stroke="black" stroke-width="0.4" stroke-linecap="square"/>
<path fill-rule="evenodd" clip-rule="evenodd" d="M102.265 415.516L104.265 416.453L105.203 418.266L106.64 419.891L107.953 420.203L108.515 421.078L111.015 425.891L114.765 426.016L117.828 427.078L119.14 428.953L120.64 429.141L122.39 429.328L124.703 428.516L124.64 427.641L122.89 427.141L123.828 426.641L125.078 426.766L126.328 427.641L127.265 426.203L126.203 425.203L124.703 423.828L126.078 423.266L127.14 424.328H128.203L130.39 424.828L131.265 423.766L132.64 424.078L132.953 422.203L133.515 422.328L133.89 422.453L135.015 422.328L134.453 421.641L134.765 419.078L136.14 420.203L136.828 419.703L136.328 418.578L137.39 417.453L136.953 415.703L135.328 414.953L135.203 413.953L131.89 414.016L130.265 411.703L130.515 407.953L129.39 405.953L129.078 403.891L129.953 402.766L129.39 401.328L130.515 400.453L130.265 399.203L129.64 399.016L130.703 397.703L129.765 395.641L126.953 394.953L126.39 395.828L127.14 398.328L125.578 398.453L124.765 395.828L125.39 394.328L124.14 393.453L123.203 393.953L122.89 395.391L120.515 394.266L119.39 394.828L117.703 394.953L115.703 395.578L113.828 395.266L111.765 395.641L107.89 395.953L107.765 397.078L108.765 397.891L108.515 398.891L105.89 399.453L104.14 399.203L103.015 398.766L101.515 400.078L100.015 401.828L102.953 402.016L104.453 403.203L108.453 401.891L109.328 401.953L108.578 403.266L106.89 403.953L104.578 404.203L103.14 404.828L100.828 405.641L100.703 407.141L99.6399 408.078L98.2649 407.953L98.3279 409.203L96.3279 409.453L95.2649 411.266L94.8279 413.078L95.3899 413.953L97.6399 414.891L98.7649 412.516L99.8279 413.078L100.203 414.141L102.265 415.516Z" fill="#E9F0FC" stroke="black" stroke-width="0.4" stroke-linecap="square"/>
<path fill-rule="evenodd" clip-rule="evenodd" d="M80.1404 449.516L81.2034 450.078L82.0784 453.578L82.5784 454.891L81.8284 455.828L81.1404 457.516L81.5784 459.141L83.1404 461.016L82.8284 462.016L83.5784 464.766L84.4534 466.828L87.6404 466.578L90.5154 467.203L90.7654 465.266L91.3904 464.453L92.7034 464.703L93.1404 463.266L94.3284 462.141L94.1404 460.953L96.0784 460.516L98.3904 461.266L98.7654 462.578L100.328 461.828L101.515 462.578L103.64 460.641L104.703 460.516L103.64 456.891L104.64 456.078L102.89 453.516L103.203 451.391L105.203 451.328L105.765 452.391L107.015 452.203L106.515 450.516L107.078 449.891L108.64 448.516L109.578 449.453L111.265 448.766L113.39 451.453L114.078 450.141L115.39 450.828L116.515 455.328L118.203 455.578L119.515 454.641L118.578 452.828L119.953 451.953L118.203 450.203L117.89 448.891L119.828 449.766L120.89 447.078L119.703 445.328L117.89 443.953L121.453 443.203L122.203 441.328L120.578 440.016L118.515 439.891L117.953 438.453L115.953 437.891L115.265 436.828L116.328 436.953L118.64 437.328L120.953 436.516L122.515 433.953L120.828 432.266L118.328 430.391L115.328 429.016L112.14 428.766L111.703 430.641L110.515 429.266L108.828 429.953L108.14 429.641V428.266L108.953 427.453L111.14 427.766H112.64L115.515 428.516L117.703 428.891L119.14 428.953L117.828 427.078L114.765 426.016L111.015 425.891L108.515 421.078L107.953 420.203L106.64 419.891L105.203 418.266L104.265 416.453L102.265 415.516L100.203 414.141L99.8284 413.078L98.7654 412.516L97.6404 414.891L95.3904 413.953L93.2034 416.328L93.9534 417.703L93.0154 419.141H91.2654L90.8284 420.953L90.1404 419.766L89.1404 420.328L87.2034 419.141L85.8904 420.703H84.7654L83.7654 422.016L82.9534 423.641L82.5154 425.141L80.5784 426.266L80.2654 428.953L78.8284 430.703L80.2654 431.891L81.5784 432.203L82.3284 432.891L80.9534 433.703L80.1404 435.703L78.8284 436.328L77.8904 435.328L76.9534 435.766L76.8904 437.078L74.3904 439.078L74.0784 440.453L73.6404 441.891L73.8904 442.703L73.3284 443.578L72.8284 446.328L71.5784 450.391L73.0154 450.953L76.1404 450.516L76.2654 451.766L79.2654 451.141L80.1404 449.516Z" fill="#E9F0FC" stroke="black" stroke-width="0.4" stroke-linecap="square"/>
<path fill-rule="evenodd" clip-rule="evenodd" d="M81.1404 457.516L81.8284 455.828L82.5784 454.891L82.0784 453.578L81.2034 450.078L80.1404 449.516L79.2654 451.141L76.2654 451.766L76.1404 450.516L73.0154 450.953L71.5784 450.391L70.0154 452.828L69.5784 454.578L67.4534 455.953L65.9534 458.641L65.4534 460.578L65.2654 462.953L64.1404 463.016L63.5154 463.578L62.8904 463.141L63.0784 461.453L62.7654 459.766L62.2034 459.203L62.3284 456.266L63.2654 454.641L64.0784 451.891L64.5784 448.641L62.4534 448.328L62.3904 451.453L61.4534 452.578L61.3284 453.328L58.9534 454.016L58.8284 453.016L57.2034 452.328L56.5784 452.766L55.5154 452.141L55.0154 452.266L54.5784 453.703L53.4534 455.016V456.828L54.2654 459.078L54.0154 460.703L53.9534 463.953L53.2034 465.078L53.0784 466.203L53.7034 467.828L53.3284 468.953L52.3284 469.453L52.2034 470.328L52.3904 472.203L52.0154 473.328L50.9534 474.016L48.3284 478.016L47.8284 479.453L46.5784 480.078L46.5154 481.078L45.5154 481.328L45.1404 482.078L43.4534 482.453L42.8904 484.703L41.8904 484.266L41.2034 485.203L40.7654 487.203L39.6404 488.578L38.5784 489.453V490.766L39.3904 493.391L41.4534 491.641L41.7034 490.391L42.5784 490.891L44.5784 490.078L46.8284 490.453L47.4534 489.953L47.6404 491.266L48.3284 491.078L50.0784 492.266L49.7034 493.766L50.2654 495.078L51.7034 495.703L52.2034 492.953L53.2034 492.391L54.7654 492.578L55.7034 494.891L57.0154 494.266L57.2654 493.266L59.2654 492.703L60.4534 493.141L61.3284 494.078L61.7654 493.703L63.0784 495.828L63.2654 497.578L64.1404 499.703L65.1404 500.266L66.2034 499.641L67.4534 496.766L66.1404 495.078L65.8904 493.641L66.3904 492.953L66.4534 489.203H67.5154L69.7034 489.141L71.0154 488.828L71.2034 487.516L72.0784 487.703L72.4534 487.141L73.8904 486.953L75.1404 486.203H76.4534L77.8284 486.953L78.7654 487.953L79.1404 489.953L80.3904 489.891L80.7654 488.891L81.7034 488.641L82.6404 488.078L83.0154 487.391L84.5784 487.516L83.6404 486.078H84.9534L85.9534 486.828L89.5154 486.328L92.8904 487.641L92.2034 485.828L91.4534 485.266L91.3904 483.141L92.3904 482.391L92.0154 480.578L92.3284 479.828L92.2654 477.578L93.3284 476.766L94.5154 477.641L94.5784 475.766L95.2654 475.141L94.9534 473.953L94.0154 473.141L95.7034 471.016L92.5784 468.578L91.0154 468.266L90.5154 467.203L87.6404 466.578L84.4534 466.828L83.5784 464.766L82.8284 462.016L83.1404 461.016L81.5784 459.141L81.1404 457.516Z" fill="#E9F0FC" stroke="black" stroke-width="0.4" stroke-linecap="square"/>
<path fill-rule="evenodd" clip-rule="evenodd" d="M82.6404 488.078L81.7034 488.641L80.7654 488.891L80.3904 489.891L79.1404 489.953L78.7654 487.953L77.8284 486.953L76.4534 486.203H75.1404L73.8904 486.953L72.4534 487.141L72.0784 487.703L71.2034 487.516L71.0154 488.828L69.7034 489.141L67.5154 489.203H66.4534L66.3904 492.953L65.8904 493.641L66.1404 495.078L67.4534 496.766L66.2034 499.641L65.1404 500.266L64.1404 499.703L63.2654 497.578L63.0784 495.828L61.7654 493.703L61.3284 494.078L60.4534 493.141L59.2654 492.703L57.2654 493.266L57.0154 494.266L55.7034 494.891L54.7654 492.578L53.2034 492.391L52.2034 492.953L51.7034 495.703L51.8284 496.703L51.0154 499.078L50.2034 498.766L49.9534 499.516H48.2034L47.1404 500.453L46.7654 499.953L44.5154 500.578L43.8284 500.141L42.8284 501.078L43.2654 504.141V507.391L44.2654 508.703L44.8284 510.703L45.1404 511.891L45.7034 512.516L46.3284 514.828L45.7034 516.516L46.2034 517.328L45.8284 518.203L46.7034 519.078L48.5154 519.203L51.4534 518.516L53.3904 517.703L55.2034 517.766L56.5154 517.016L58.5154 517.078L59.4534 515.578L59.6404 514.516L60.5154 514.453L61.2034 515.516L63.5784 516.203L63.8904 515.766L67.5784 516.766L70.0154 517.766L71.6404 518.016L73.2654 520.141L74.2034 520.578L76.2654 520.953L78.0154 521.766L78.9534 520.953L80.0154 518.703L81.2034 517.828H83.6404L83.8284 518.703H85.1404L85.3904 517.641L86.4534 516.953L87.4534 517.828L88.3904 516.766L88.5784 514.453L89.2034 513.828L89.0154 512.016L90.3284 510.266L90.0784 509.203L90.3284 507.453L88.9534 504.891L90.7654 504.141L93.0784 503.766L93.3284 502.516L92.3904 500.016L92.4534 499.203L93.3904 498.703L95.5784 499.516L96.5154 499.328L99.0784 499.078L99.8284 496.828L98.8904 494.891L97.4534 492.953L95.8904 492.266L95.0154 490.516L93.0154 489.578L93.4534 488.328L92.8904 487.641L89.5154 486.328L85.9534 486.828L84.9534 486.078H83.6404L84.5784 487.516L83.0154 487.391L82.6404 488.078Z" fill="#E9F0FC" stroke="black" stroke-width="0.4" stroke-linecap="square"/>
<path fill-rule="evenodd" clip-rule="evenodd" d="M97.4529 492.953L98.8899 494.891L99.8279 496.828L99.0779 499.078L96.5149 499.328L95.5779 499.516L93.3899 498.703L92.4529 499.203L92.3899 500.016L93.3279 502.516L93.0779 503.766L90.7649 504.141L88.9529 504.891L90.3279 507.453L90.0779 509.203L90.3279 510.266L89.0149 512.016L89.2029 513.828L88.5779 514.453L88.3899 516.766L89.8279 516.266L91.7029 517.016L91.9529 515.641L93.5779 516.266L94.1399 517.516H95.2649L95.6399 518.578L96.0779 519.578L97.3279 519.953L98.7649 522.703L100.015 523.641L102.203 523.516L103.14 524.203L104.64 523.453L105.328 520.203L106.14 517.453L107.078 516.516L107.64 514.641L108.453 514.328L108.39 512.391L108.703 511.141L109.703 509.203L111.328 508.766L112.265 504.703L113.203 505.453L113.89 504.641L113.265 503.641L112.515 504.141L113.14 500.391L113.64 498.203L113.515 496.391L114.265 494.203L116.265 491.203L114.39 490.328L113.578 487.641L114.39 486.078L113.953 484.078L115.64 482.828L115.39 480.578L116.953 480.516L117.765 478.328L118.453 475.891L118.015 474.391L116.015 472.016L118.015 471.828L118.765 471.078V469.766L117.328 470.328L116.515 469.266L117.203 467.641L118.453 466.953L118.39 464.891L116.765 463.828L114.89 461.141L116.328 459.016L118.203 459.328L119.453 460.391L119.89 458.016L119.515 454.641L118.203 455.578L116.515 455.328L115.39 450.828L114.078 450.141L113.39 451.453L111.265 448.766L109.578 449.453L108.64 448.516L107.078 449.891L106.515 450.516L107.015 452.203L105.765 452.391L105.203 451.328L103.203 451.391L102.89 453.516L104.64 456.078L103.64 456.891L104.703 460.516L103.64 460.641L101.515 462.578L100.328 461.828L98.7649 462.578L98.3899 461.266L96.0779 460.516L94.1399 460.953L94.3279 462.141L93.1399 463.266L92.7029 464.703L91.3899 464.453L90.7649 465.266L90.5149 467.203L91.0149 468.266L92.5779 468.578L95.7029 471.016L94.0149 473.141L94.9529 473.953L95.2649 475.141L94.5779 475.766L94.5149 477.641L93.3279 476.766L92.2649 477.578L92.3279 479.828L92.0149 480.578L92.3899 482.391L91.3899 483.141L91.4529 485.266L92.2029 485.828L92.8899 487.641L93.4529 488.328L93.0149 489.578L95.0149 490.516L95.8899 492.266L97.4529 492.953Z" fill="#E9F0FC" stroke="black" stroke-width="0.4" stroke-linecap="square"/>
<path fill-rule="evenodd" clip-rule="evenodd" d="M115.078 505.391L113.703 508.828L113.265 511.016L112.14 513.016L111.953 514.703L112.14 518.891L112.578 519.078L112.515 525.578L112.89 526.266L112.765 528.391L114.203 527.078L114.953 524.766L116.39 521.266L116.015 519.891L116.953 517.641L117.64 515.141L117.828 513.203L119.015 512.016L118.828 511.141L119.203 508.891L120.828 502.828L121.89 502.516L122.515 501.078L122.453 499.766L122.953 498.891V496.078L124.203 494.953L123.64 493.641H124.515L125.265 490.891L126.39 488.453L126.953 487.891V485.453L126.64 484.516L127.203 483.078L128.265 482.453L127.89 480.891L127.265 481.266L126.765 480.578L125.828 481.391L124.703 483.203L124.515 485.203L124.265 486.516L123.39 487.078L123.64 488.453L123.14 490.516L122.14 492.703L121.453 494.391L120.578 495.266L119.89 497.266L119.203 499.766H117.89L116.953 500.578L116.265 503.016L115.078 505.391Z" fill="#E9F0FC" stroke="black" stroke-width="0.4" stroke-linecap="square"/>
<path fill-rule="evenodd" clip-rule="evenodd" d="M157.328 460.516L158.578 460.078L159.578 459.766L160.015 458.016L160.953 457.203L162.078 456.516L163.64 459.703L164.515 456.953L165.39 456.016L168.453 456.641L169.64 455.641L169.953 454.016L171.578 453.016L173.39 453.578L174.64 453.453L175.015 454.266L174.453 455.016L172.828 455.078L171.515 455.578L170.953 456.203L171.453 457.203L170.64 458.891L169.265 459.766L168.578 460.266L168.703 461.766L167.265 461.828L167.203 464.391L165.515 464.516L164.39 463.703L164.203 465.891L163.515 468.891L164.328 469.328L164.078 471.828L163.39 473.078L164.453 475.016L165.828 476.016L167.203 476.328L166.578 478.078L164.89 478.703L163.515 479.141L162.015 481.578L162.078 482.828L162.953 483.453L162.203 484.891L159.703 485.891L159.39 486.703L156.328 489.203L157.203 489.578L154.953 491.391L155.078 494.016L156.265 494.516L154.703 496.766L152.328 498.516L150.828 498.391L152.015 495.516L152.203 493.828L153.64 492.891L154.14 491.703L153.89 490.703L152.515 491.828L152.015 491.578L152.328 489.203L151.328 488.453L150.64 487.891V484.703L149.453 484.328L149.703 482.703L150.828 481.391L151.078 478.766L150.265 477.703L149.765 475.578L149.265 473.578L149.578 472.016L151.328 469.828L152.515 469.266L153.953 467.141L155.515 464.078L156.203 461.516L157.328 460.516Z" fill="#E9F0FC" stroke="black" stroke-width="0.4" stroke-linecap="square"/>
<path fill-rule="evenodd" clip-rule="evenodd" d="M70.8899 528.328L71.3279 533.016L70.3899 533.453L70.2029 534.578L71.5779 535.766L72.8279 536.453L74.3279 536.578L75.5779 535.078L74.2029 533.578L73.4529 531.703L73.3279 530.016L74.5779 530.266L75.5149 530.328L77.2029 530.078L79.5149 529.953H81.1399L82.0149 528.953L82.8279 529.891L84.3899 530.016L86.3899 529.641L87.3279 529.328L87.8899 531.078L89.4529 530.203L90.0149 529.203L91.0779 530.328L91.9529 529.453L93.4529 528.891L94.2029 529.453L96.4529 529.016L97.5779 530.078L97.2029 531.266L95.7649 532.641L96.8279 533.016L98.5779 531.953L100.078 533.328L101.453 530.266L102.453 529.578L103.703 527.078L104.64 523.453L103.14 524.203L102.203 523.516L100.015 523.641L98.7649 522.703L97.3279 519.953L96.0779 519.578L95.6399 518.578L95.2649 517.516H94.1399L93.5779 516.266L91.9529 515.641L91.7029 517.016L89.8279 516.266L88.3899 516.766L87.4529 517.828L86.4529 516.953L85.3899 517.641L85.1399 518.703H83.8279L83.6399 517.828H81.2029L80.0149 518.703L78.9529 520.953L78.0149 521.766L76.2649 520.953L74.2029 520.578L73.2649 520.141L71.6399 518.016L70.0149 517.766L68.7029 520.016L67.3899 520.391L66.8899 522.453L67.3279 523.891L67.7649 525.203L67.9529 527.016L69.1399 527.516L70.3899 527.328L70.8899 528.328Z" fill="#E9F0FC" stroke="black" stroke-width="0.4" stroke-linecap="square"/>
<path fill-rule="evenodd" clip-rule="evenodd" d="M51.4531 518.516L53.3901 517.703L55.2031 517.766L56.5151 517.016L58.5151 517.078L59.4531 515.578L59.6401 514.516L60.5151 514.453L61.2031 515.516L63.5781 516.203L63.8901 515.766L67.5781 516.766L70.0151 517.766L68.7031 520.016L67.3901 520.391L66.8901 522.453L67.3281 523.891L67.7651 525.203L67.9531 527.016L69.1401 527.516L70.3901 527.328L70.8901 528.328L71.3281 533.016L70.3901 533.453L70.2031 534.578L68.3901 535.203L67.5151 536.891L65.7651 537.953L65.0151 539.766L64.0151 540.266L62.2651 543.328L62.0151 546.141L62.3901 548.828L63.7031 549.766L64.0781 552.141L65.3281 553.266L65.5781 555.078L64.8281 556.641L63.1401 558.391L61.8901 560.641L61.4531 561.391L59.3901 561.078L58.4531 561.203L56.0781 559.391L55.0781 558.953L53.5781 559.328L50.9531 559.078L50.0781 559.578H48.8901L47.5781 561.203L45.0151 561.078L44.2651 561.328L43.5151 561.953L42.5781 562.016L41.5151 562.703L41.1401 562.266L40.3281 562.328L39.8281 562.078L38.6401 561.453L36.5151 560.891L35.6401 561.078H35.1401L34.0151 560.266L33.2031 559.703L32.5151 559.828L32.1401 560.016L32.0151 560.328H31.6401L31.3281 559.953L30.8901 559.828L29.4531 560.328L30.7031 557.891L30.8281 558.141L31.0151 559.016L31.7031 559.266L32.2651 559.391L32.5151 558.891L32.8901 558.016L32.9531 557.016L32.7651 556.328L32.5151 555.578L32.0151 554.516L31.9531 553.453V552.703L32.3901 552.266L33.5781 551.516L34.2651 551.078L35.2031 550.828L35.4531 550.328L35.3901 549.891V549.578L35.7651 548.766L35.7031 548.453L35.4531 547.641L35.0781 547.391L34.2651 546.641L33.7031 546.703L33.3281 546.516L33.5781 546.078L33.3281 545.516L32.6401 545.766L32.2651 545.203L32.6401 544.766L32.9531 544.516L32.7651 542.453L32.3281 540.891L30.7651 540.516L29.5781 536.766L29.2031 534.766L28.3281 533.016L27.2031 531.641L26.2651 530.203L25.5781 529.328L25.3281 528.641L24.9531 526.078L24.6401 524.828L23.9531 523.516L23.0151 522.703L24.0151 522.641L26.0781 523.953L27.8901 525.078L28.3901 525.953H29.0781L29.8901 526.203L30.3901 526.328L31.2651 525.766L31.7651 524.516L31.2031 523.203L30.0781 522.016L29.5781 520.578L28.4531 519.578L27.2651 519.203L27.1401 517.578L28.2651 516.703L29.3901 516.203L30.8901 516.891L32.0151 517.703L33.3281 517.203L34.8281 518.141L34.2031 520.391L35.2031 520.641L38.7651 521.203L39.8901 522.203L40.9531 521.141L42.2651 519.828L44.0151 518.766L44.9531 518.891L45.8281 518.203L46.7031 519.078L48.5151 519.203L51.4531 518.516Z" fill="#E9F0FC" stroke="black" stroke-width="0.4" stroke-linecap="square"/>
<path fill-rule="evenodd" clip-rule="evenodd" d="M42.8281 501.078L43.2651 504.141V507.391L44.2651 508.703L44.8281 510.703L45.1401 511.891L45.7031 512.516L46.3281 514.828L45.7031 516.516L46.2031 517.328L45.8281 518.203L44.9531 518.891L44.0151 518.766L42.2651 519.828L40.9531 521.141L39.8901 522.203L38.7651 521.203L35.2031 520.641L34.2031 520.391L34.8281 518.141L33.3281 517.203L34.0781 516.078L34.5151 514.891L34.6401 512.953L34.3901 511.078L33.7651 509.016L32.4531 508.203L31.2031 509.016L29.9531 508.953L29.0781 507.016L28.3281 505.266L27.5781 503.141L27.7031 501.141L26.4531 499.953L24.7651 498.578L23.0781 497.953L22.0151 496.578L22.3901 495.266V494.203L21.8281 492.766L20.7651 492.016L20.1401 490.391L20.0151 488.078L18.9531 486.266L17.5781 484.578L17.7031 482.953L18.8281 482.391L18.7031 481.266L18.5151 479.891L18.2651 479.516L17.4531 479.703L17.2031 479.266L17.7651 477.828L17.8281 475.891L17.6401 475.016L17.2031 474.766L16.7651 475.203L16.4531 476.141L15.8901 478.141L15.5781 478.766L15.2031 478.953L14.7031 478.703L14.3901 477.953L13.6401 476.016L13.5781 475.328L13.7651 474.578L14.3901 472.953L14.3281 471.891L14.2651 470.516H15.7031L16.2651 471.078L18.4531 470.703L19.9531 470.203L21.7651 469.141L22.9531 470.703L22.5151 472.266L22.8901 472.953L23.0781 473.828L22.8281 474.703L23.0151 475.203L23.5781 475.453L23.8901 475.828L24.1401 477.203L23.6401 480.016L24.3901 480.891L24.2651 482.891L25.9531 482.641L26.5151 480.953L29.3281 480.453L30.5151 480.703L32.4531 482.578L33.7651 483.516L35.3901 483.641L35.8281 484.828L35.3281 485.141L35.4531 487.328L37.0151 486.953L38.0151 487.328L37.7651 488.203L38.3281 488.516L38.9531 488.078L39.6401 488.578L38.5781 489.453V490.766L39.3901 493.391L41.4531 491.641L41.7031 490.391L42.5781 490.891L44.5781 490.078L46.8281 490.453L47.4531 489.953L47.6401 491.266L48.3281 491.078L50.0781 492.266L49.7031 493.766L50.2651 495.078L51.7031 495.703L51.8281 496.703L51.0151 499.078L50.2031 498.766L49.9531 499.516H48.2031L47.1401 500.453L46.7651 499.953L44.5151 500.578L43.8281 500.141L42.8281 501.078Z" fill="#E9F0FC" stroke="black" stroke-width="0.4" stroke-linecap="square"/>
<path fill-rule="evenodd" clip-rule="evenodd" d="M21.7651 469.141L19.9531 470.203L18.4531 470.703L16.2651 471.078L15.7031 470.516H14.2651L14.4531 469.516L14.5151 467.766L14.3281 467.391L13.9531 468.016L13.7031 467.953L13.0781 466.141V465.828L13.2651 465.516L14.8281 464.641H14.3901L13.7651 464.828L13.4531 464.578L12.4531 464.766L12.0781 464.141L11.7651 464.016L11.4531 464.141L11.3281 464.641L11.0781 464.766H10.7651L10.3901 464.641L10.0781 464.016L9.95312 463.766V463.391L10.3901 462.828L11.1401 462.453L11.9531 462.203L12.2031 460.953H11.7651L11.1401 461.016L10.8901 460.828L10.7651 459.953L10.6401 459.641L10.1401 459.203L9.89012 458.766L10.0781 458.266L10.5151 457.641L10.7651 457.141L11.0151 456.328L11.7651 454.953L11.4531 454.516L11.5151 453.953L11.6401 453.578L12.7651 452.391L13.0781 451.391L13.1401 450.516L13.0151 449.578L12.9531 448.703L13.3281 448.203L13.8281 447.578L14.2031 446.891L14.3281 445.891L14.2031 444.891L14.6401 444.766L15.1401 444.203L15.2031 443.516H14.5781V442.641L14.1401 441.766L13.5151 440.641L13.7031 440.141L14.5781 439.141H13.2651L12.3281 438.828L11.4531 438.891L11.8901 439.391L11.6401 439.766H10.8281L10.3281 440.703L9.70312 441.266L9.14012 441.641L8.51512 441.766L8.14012 442.578L7.57812 443.203L6.82812 443.578L5.76512 443.766L4.82812 443.828L4.64012 443.516L5.26512 442.578L5.64012 442.078L6.26512 441.953L6.82812 441.578L7.39012 440.953L7.70312 440.453V439.328L7.20312 439.703L6.64012 440.516L6.14012 440.953L5.26512 441.078L5.20312 440.766L5.57812 440.391L5.76512 439.703L5.26512 439.578L4.89012 439.328L5.14012 438.578L5.32812 437.703L4.64012 437.891L4.70312 436.641L4.07812 437.203L3.51512 437.016L3.32812 436.641L3.01512 436.578L2.82812 437.016L2.07812 437.453H1.32812L1.26512 437.016L1.82812 436.328L1.76512 435.891L1.70312 435.328V434.578L1.89012 434.016L2.26512 433.953L2.39012 434.516L2.70312 434.578L3.14012 434.328L3.26512 433.828L3.14012 433.266V432.641L2.20312 428.703L3.07812 427.391L2.20312 423.766L0.703125 421.016L1.01512 417.453L0.890121 416.516L0.203125 414.328L0.265121 413.703L0.328125 413.578L0.828125 413.766L1.14012 413.703V413.328L0.578125 412.453L0.453125 411.953L0.515121 410.141L2.39012 407.078L3.26512 406.953L3.82812 406.641L4.64012 406.141L5.57812 406.453L7.32812 410.391L6.89012 414.203L6.95312 415.266L8.01512 416.016L11.2031 414.703L11.8281 413.016L11.8901 411.578L12.7031 409.578L14.3281 407.203L13.8901 406.391L14.2031 402.953L15.5781 401.953L18.2651 401.016L21.0151 403.828L20.7031 400.766L24.2031 400.891L24.8281 403.828L26.4531 404.578L28.0781 404.203L28.8281 406.391L31.1401 406.953L32.5781 404.516L34.0781 405.328L35.2031 406.391V409.766L33.2651 413.078L32.4531 414.328L32.0151 417.453L30.1401 420.203L28.6401 422.578V424.953L29.6401 426.078L31.8281 426.328L32.2031 427.016L31.1401 427.953L29.8901 429.516L28.8901 431.266L27.5151 432.953L25.7651 434.016L24.4531 435.766L24.3901 437.016L26.3281 437.391L27.1401 436.828L28.3901 437.078L30.2651 434.328L31.4531 434.516L30.9531 436.953L32.5151 436.328L32.4531 435.391L34.0781 433.516L36.6401 433.141L38.0151 431.016L37.9531 430.266L39.3901 428.828L41.7651 425.203L43.2031 425.516L44.0151 426.266L43.2031 428.828L41.9531 432.641L42.7651 433.266L44.4531 433.578L45.4531 432.828L45.8901 430.953L46.5151 428.891L48.4531 427.578L50.5151 426.953L52.3281 425.828H54.2651L55.7031 425.453L57.7031 423.766L58.3281 422.766L57.5781 422.328L56.0151 422.891L55.0781 423.516L54.8901 422.016L53.6401 420.766L54.0781 419.391L57.7031 420.141L58.7651 420.891L60.0151 419.641L60.8901 417.766L61.3281 415.453L61.0151 413.453L63.4531 411.953H65.3901L66.5781 413.703L67.3281 418.141L68.6401 419.078L67.6401 420.516L69.2651 422.016L70.3901 422.078L70.5781 425.078H72.0781L72.2031 426.203L73.2651 425.891L73.9531 424.266H75.2031L75.9531 426.078L74.8281 427.453L73.0781 428.266L72.0781 429.203L72.0151 430.953L71.8281 432.578L70.8281 434.953L70.0151 435.453L68.8281 438.141L67.7651 440.453L66.2031 442.328L65.5781 445.328L64.7651 446.953L64.5781 448.641L62.4531 448.328L62.3901 451.453L61.4531 452.578L61.3281 453.328L58.9531 454.016L58.8281 453.016L57.2031 452.328L56.5781 452.766L55.5151 452.141L55.0151 452.266L54.5781 453.703L53.4531 455.016V456.828L54.2651 459.078L54.0151 460.703L53.9531 463.953L53.2031 465.078L53.0781 466.203L53.7031 467.828L53.3281 468.953L52.3281 469.453L52.2031 470.328L52.3901 472.203L52.0151 473.328L50.9531 474.016L48.3281 478.016L47.8281 479.453L46.5781 480.078L46.5151 481.078L45.5151 481.328L45.1401 482.078L43.4531 482.453L42.8901 484.703L41.8901 484.266L41.2031 485.203L40.7651 487.203L39.6401 488.578L38.9531 488.078L38.3281 488.516L37.7651 488.203L38.0151 487.328L37.0151 486.953L35.4531 487.328L35.3281 485.141L35.8281 484.828L35.3901 483.641L33.7651 483.516L32.4531 482.578L30.5151 480.703L29.3281 480.453L26.5151 480.953L25.9531 482.641L24.2651 482.891L24.3901 480.891L23.6401 480.016L24.1401 477.203L23.8901 475.828L23.5781 475.453L23.0151 475.203L22.8281 474.703L23.0781 473.828L22.8901 472.953L22.5151 472.266L22.9531 470.703L21.7651 469.141Z" fill="#E9F0FC" stroke="black" stroke-width="0.4" stroke-linecap="square"/>
<path fill-rule="evenodd" clip-rule="evenodd" d="M13.3901 447.578L13.5781 446.891L13.7031 445.828L13.6401 444.953L13.8281 444.328L14.0781 443.641L13.9531 443.078L13.5781 442.516L13.1401 442.203L12.7651 441.891L12.5781 441.141L12.6401 440.391L11.8281 440.266L11.3901 440.328L10.6401 440.766L10.5151 441.328L10.5781 441.953L10.4531 442.391H10.1401L9.64012 442.328L9.14012 442.391L8.64012 442.953L8.20312 443.453L7.64012 443.828L7.20312 444.078L6.57812 444.328L6.20312 444.578L5.76512 444.891L5.26512 444.828L4.70312 444.641L4.01512 445.453L3.57812 446.453L3.89012 446.266L4.20312 445.828L4.70312 445.891L4.76512 446.391L5.14012 446.828L5.64012 447.391L5.89012 447.953L5.76512 448.453L5.45312 448.953L5.20312 449.141L5.51512 449.516L5.95312 449.078L6.20312 449.453L6.51512 449.578L6.95312 449.516L7.45312 449.016L7.82812 448.453L7.95312 447.828L8.26512 447.328L9.01512 446.891L9.51512 447.203L10.1401 447.641L10.4531 447.953L10.3901 448.516L10.8901 448.641L11.3281 448.016L11.7651 447.766L11.9531 447.703L12.5781 447.641L13.3901 447.578Z" fill="#E9F0FC" stroke="black" stroke-width="0.3" stroke-linecap="square"/>
<path fill-rule="evenodd" clip-rule="evenodd" d="M9.89012 453.203V453.453L9.57812 453.641L9.07812 453.828L8.76512 454.078L8.57812 454.516L8.39012 454.891L7.64012 454.953L7.51512 454.578V453.766L7.14012 453.578L7.01512 453.453L6.82812 453.203V452.641L6.89012 452.203L7.14012 452.141H7.76512L7.82812 451.828L7.76512 451.453L6.89012 451.516L6.51512 451.453L6.32812 451.078V450.703L6.57812 450.141L6.89012 449.953L7.20312 449.828L8.39012 450.078L8.82812 449.953L9.07812 449.703L9.57812 448.641L9.76512 448.453L10.1401 448.516L10.5781 448.891L10.5151 449.266L10.2031 449.703L10.6401 449.891L11.2651 449.516L11.6401 449.953L11.7031 450.641L11.6401 451.641L11.4531 452.266L11.0781 452.578L10.8281 452.516L10.7031 452.078L10.2651 451.953L10.0781 452.703L9.89012 453.203Z" fill="#E9F0FC" stroke="black" stroke-width="0.3" stroke-linecap="square"/>
<path fill-rule="evenodd" clip-rule="evenodd" d="M9.01512 462.328L9.45312 462.141L9.76512 462.828L9.45312 463.328L9.14012 464.078V464.828L9.01512 465.266L8.76512 465.453L7.70312 464.578V464.203L8.20312 464.266L8.32812 463.891L8.14012 463.703V463.328L8.57812 463.391V462.641L9.01512 462.328Z" fill="#E9F0FC" stroke="black" stroke-width="0.3" stroke-linecap="square"/>
<path fill-rule="evenodd" clip-rule="evenodd" d="M9.07814 456.141L10.0151 456.266L9.64014 457.078L8.07814 457.891L7.39014 457.391L8.20314 456.328L9.07814 456.141Z" fill="#E9F0FC" stroke="black" stroke-width="0.3" stroke-linecap="square"/>
<path fill-rule="evenodd" clip-rule="evenodd" d="M7.14014 462.641L7.51514 462.766L8.45314 461.578L7.76514 460.578L7.14014 462.641Z" fill="#E9F0FC" stroke="black" stroke-width="0.3" stroke-linecap="square"/>
<path fill-rule="evenodd" clip-rule="evenodd" d="M11.8901 449.141L12.1401 449.078L12.3901 448.703V448.266L12.0781 448.078L11.9531 448.641L11.8901 449.141Z" fill="#E9F0FC" stroke="black" stroke-width="0.2" stroke-linecap="square"/>
<path fill-rule="evenodd" clip-rule="evenodd" d="M11.2651 448.891L11.6401 448.203L11.7031 448.953L11.2651 448.891Z" fill="#E9F0FC" stroke="black" stroke-width="0.2" stroke-linecap="square"/>
<path fill-rule="evenodd" clip-rule="evenodd" d="M42.3901 402.703L43.5151 401.578L43.5781 398.578L44.2031 399.516L45.0151 400.391L46.2651 400.266L45.7651 399.016L46.3901 398.141L48.4531 397.828L49.5781 399.328L50.8901 402.203L52.4531 400.703L53.0781 398.766L54.9531 397.953L55.9531 399.703L57.4531 398.453L58.9531 399.703L60.2031 400.516L61.9531 400.453L62.6401 404.266L61.2031 407.016L59.9531 409.453L59.8901 411.703L60.5781 412.016L61.5151 410.391L63.0781 409.266L64.1401 410.203L63.4531 411.953H65.3901L66.5781 413.703L67.9531 409.766L67.0151 407.266L67.3901 406.266L67.1401 404.266L67.9531 400.953V400.516L69.2031 397.516L71.0781 395.516L69.7651 392.703L70.2031 391.641L71.1401 392.016V389.641L70.3901 386.328L70.7651 384.891L69.7031 382.766L70.8281 382.078L70.3901 379.828L70.7651 376.641L69.6401 376.141L69.0151 374.703L71.5151 373.766L71.0151 371.891L66.5151 368.766L66.0151 365.578L65.1401 362.766L63.0781 362.953L62.7031 361.766H61.3281L61.5781 364.953L59.2651 361.641L56.2651 355.453L53.7651 355.203L52.3901 354.078L51.2651 350.766L48.8281 346.203L48.0151 343.641H46.8901L46.3901 340.828L37.4531 330.516L37.0151 328.453L35.7651 328.828L33.2031 328.453L28.1401 329.578L30.0151 334.828L29.8281 336.641L30.7031 340.953L32.8901 344.891L32.7651 346.891L34.4531 350.266L34.3901 354.703L31.9531 358.203L32.5781 363.953L31.7031 366.078L30.3281 369.891L28.8901 370.828L28.2031 372.703L25.5151 373.891L24.1401 375.328L22.0151 375.641L20.2651 374.891L17.9531 377.078L19.2031 379.641L19.2651 382.078L18.0151 383.516L17.3281 384.891L14.9531 385.391L13.8281 387.391L14.6401 391.516L15.0781 395.766L15.7651 397.516L15.5781 401.953L18.2651 401.016L21.0151 403.828L20.7031 400.766L24.2031 400.891L24.8281 403.828L26.4531 404.578L28.0781 404.203L28.8281 406.391L31.1401 406.953L32.5781 404.516L34.0781 405.328L35.2031 406.391V409.766L37.8901 408.828L37.9531 410.516L39.8281 410.203L40.3901 411.828L41.5151 411.891L41.9531 415.891L44.2031 417.203L45.2031 416.391L44.7031 410.078L43.6401 405.891L42.3901 402.703Z" fill="#E9F0FC" stroke="black" stroke-width="0.4" stroke-linecap="square"/>
<path fill-rule="evenodd" clip-rule="evenodd" d="M94.3284 396.578L95.5784 399.641L95.0784 400.891L93.7034 400.641L91.0154 401.516L88.0784 401.391L88.1404 402.453L91.1404 403.703L93.8904 402.703L95.5784 404.766L94.7654 406.078L95.8284 407.703L98.2654 407.953L98.3284 409.203L96.3284 409.453L95.2654 411.266L94.8284 413.078L95.3904 413.953L93.2034 416.328L93.9534 417.703L93.0154 419.141H91.2654L90.8284 420.953L90.1404 419.766L89.1404 420.328L87.2034 419.141L85.8904 420.703H84.7654L83.7654 422.016L82.9534 423.641L82.5154 425.141L80.5784 426.266L81.4534 424.391L81.3284 423.016L80.6404 423.203L80.5784 421.078L79.2654 421.953L78.0154 424.828L75.9534 426.078L75.2034 424.266H73.9534L73.2654 425.891L72.2034 426.203L72.0784 425.078H70.5784L70.3904 422.078L69.2654 422.016L67.6404 420.516L68.6404 419.078L67.3284 418.141L66.5784 413.703L67.9534 409.766L67.0154 407.266L67.3904 406.266L67.1404 404.266L67.9534 400.953V400.516L69.2034 397.516L71.0784 395.516L69.7654 392.703L70.2034 391.641L71.1404 392.016V389.641L70.3904 386.328L70.7654 384.891L69.7034 382.766L70.8284 382.078L70.3904 379.828L70.7654 376.641L69.6404 376.141L69.0154 374.703L71.5154 373.766L71.0154 371.891L77.3284 372.891L76.7654 369.141L78.3284 368.141L79.4534 368.016L79.5784 369.516L81.0154 370.578L82.4534 369.703L82.9534 370.453L83.8904 370.266L85.0784 372.078L86.9534 373.516L89.1404 376.078L90.7034 378.828L90.8284 380.703L92.3284 381.516L93.3904 385.141L92.5154 387.203L93.3904 388.328L94.7654 388.203L94.9534 389.891L95.0154 392.578L97.0154 392.453L96.2654 393.891L96.9534 394.516V396.766L94.3284 396.578Z" fill="#E9F0FC" stroke="black" stroke-width="0.4" stroke-linecap="square"/>
<path fill-rule="evenodd" clip-rule="evenodd" d="M117.641 364.891L114.578 365.078L113.516 365.578V366.828L111.578 368.078L110.703 369.641L106.891 370.078L106.141 369.641L106.453 368.016L105.141 367.203L104.078 367.078L103.391 365.391L102.328 365.078L100.828 366.328L98.4534 365.766L98.0159 367.078L97.2034 367.641L97.2659 369.016L96.0784 371.141L97.0784 372.453L96.3909 375.453L95.0159 374.891L93.3909 374.766L92.3909 377.016L90.7034 378.828L90.8284 380.703L92.3284 381.516L93.3909 385.141L92.5159 387.203L93.3909 388.328L94.7659 388.203L94.9534 389.891L95.0159 392.578L97.0159 392.453L96.2659 393.891L96.9534 394.516V396.766L94.3284 396.578L95.5784 399.641L95.0784 400.891L98.0159 401.016L98.8284 402.453L100.016 401.828L101.516 400.078L103.016 398.766L104.141 399.203L105.891 399.453L108.516 398.891L108.766 397.891L107.766 397.078L107.891 395.953L104.891 396.266L104.266 394.453L106.703 394.516L108.078 393.703L109.828 394.516L112.328 393.953L113.141 392.828L114.453 391.453L113.766 390.266L115.141 389.516L116.641 390.578L117.891 392.203L119.516 391.516L120.078 390.516L121.828 390.703L121.016 386.328L119.453 384.016L118.391 382.016L119.516 380.453L120.141 378.766H120.203L119.047 377.172L119.485 376.235L119.266 374.297L117.203 372.641L117.828 371.391L117.203 368.578L118.047 368.235L117.703 364.891H117.641Z" fill="#89B0F2" stroke="black" stroke-width="0.4" stroke-linecap="square"/>
<path d="M61.3284 361.766L61.5784 364.953L59.2654 361.641L56.2654 355.453L53.7654 355.203L52.3904 354.078L51.2654 350.766L48.8284 346.203L48.0154 343.641H46.8904L46.3904 340.828L37.4534 330.516L37.0154 328.453L37.6404 324.516L39.3284 323.266L40.3284 320.891L41.2654 316.266L36.2034 307.266L33.2654 307.391L28.3284 300.641L32.2654 278.891L38.1404 280.828L41.5784 280.641L44.2034 284.203L45.9534 286.766L48.2034 289.266L50.8284 287.953L51.3284 289.766L52.2034 290.078L49.0154 293.078L52.8284 297.641L54.5784 301.391L54.3904 303.203L55.4534 304.766L56.3904 304.141L61.7654 305.141L63.5784 305.828L67.8284 306.016L70.8284 306.891L71.8904 308.016L73.6404 306.266L76.6404 307.516L77.1404 309.703L76.3904 311.641L78.3904 311.203L79.3904 311.703L81.6404 311.516L84.6404 312.078L86.4534 307.516L87.7654 311.328L96.0154 323.141L96.5784 326.953L98.0784 329.828L101.578 331.828L105.703 332.266L107.703 337.266L110.953 340.953L110.39 342.891L109.015 344.016L109.39 345.391L107.765 347.891L105.89 348.453L107.64 351.891L108.515 352.203L109.015 353.391L111.14 357.578L113.515 358.203L114.703 359.203L114.89 360.703L115.703 361.141L115.953 363.391L117.64 364.891L114.578 365.078L113.515 365.578V366.828L111.578 368.078L110.703 369.641L106.89 370.078L106.14 369.641L106.453 368.016L105.14 367.203L104.078 367.078L103.39 365.391L102.328 365.078L100.828 366.328L98.4534 365.766L98.0154 367.078L97.2034 367.641L97.2654 369.016L96.0784 371.141L97.0784 372.453L96.3904 375.453L95.0154 374.891L93.3904 374.766L92.3904 377.016L90.7034 378.828L89.1404 376.078L86.9534 373.516L85.0784 372.078L83.8904 370.266L82.9534 370.453L82.4534 369.703L81.0154 370.578L79.5784 369.516L79.4534 368.016L78.3284 368.141L76.7654 369.141L77.3284 372.891L71.0154 371.891L66.5154 368.766L66.0154 365.578L65.1404 362.766L63.0784 362.953L62.7034 361.766H61.3284ZM76.3904 339.078L77.6404 341.078L81.0784 339.328L82.2034 342.328L82.5784 339.141L84.0784 338.516L85.3284 337.078L83.7034 335.953L82.6404 336.953L81.0784 337.891L77.9534 334.641H76.7654L75.1404 332.203L74.1404 333.203L74.3904 334.703L75.8284 334.891L76.8284 335.953L75.8904 336.453H74.3284L76.3904 339.078Z" fill="#E9F0FC" stroke="black" stroke-width="0.4" stroke-linecap="square"/>
<path fill-rule="evenodd" clip-rule="evenodd" d="M110.953 340.953L110.39 342.891L109.015 344.016L109.39 345.391L107.765 347.891L105.89 348.453L107.64 351.891L108.515 352.203L109.015 353.391L111.14 357.578L113.515 358.203L114.703 359.203L114.89 360.703L115.703 361.141L115.953 363.391L117.64 364.891L119.203 364.828L120.89 363.141L120.515 362.266L121.328 361.266L125.328 361.953L127.328 360.266L127.265 355.391L129.203 353.578L130.015 346.141L127.328 344.641L129.828 342.266L127.64 340.078L128.265 338.016L126.015 333.953L127.14 331.953L125.578 330.703L125.828 329.703L125.203 323.828L126.578 322.391L127.203 319.828L124.828 317.016L124.515 314.953L125.89 312.453L124.515 309.516L125.703 307.328L126.64 305.078L127.453 303.078L129.515 303.953L130.203 305.453L131.39 305.891L132.015 302.391L130.203 301.641L129.515 300.516L129.578 298.078L128.203 296.641L128.953 293.016L130.328 290.453L131.078 284.953L128.14 284.141L126.39 284.453L124.578 283.578L123.64 284.141L121.265 283.516L120.078 283.766L117.89 282.453L112.515 281.141L107.328 281.016L103.89 281.141L103.14 280.328L95.5149 276.766L92.8279 276.953L89.8279 279.578L90.0149 282.266L91.2029 283.078L91.5149 286.141L85.1399 291.016L85.6399 292.828L85.4529 295.078V296.953L84.2649 296.016L81.4529 295.766L81.0149 297.891L79.5779 295.328L78.2029 296.141L77.5149 294.828L74.2649 299.703L73.6399 306.266L76.6399 307.516L77.1399 309.703L76.3899 311.641L78.3899 311.203L79.3899 311.703L81.6399 311.516L84.6399 312.078L86.4529 307.516L87.7649 311.328L96.0149 323.141L96.5779 326.953L98.0779 329.828L101.578 331.828L105.703 332.266L107.703 337.266L110.953 340.953Z" fill="#E9F0FC" stroke="black" stroke-width="0.4" stroke-linecap="square"/>
<path fill-rule="evenodd" clip-rule="evenodd" d="M107.328 281.016L112.515 281.141L117.89 282.453L120.078 283.766L121.265 283.516L123.64 284.141L124.578 283.578L126.39 284.453L128.14 284.141L131.078 284.953L131.828 282.891L133.515 282.453L134.015 280.641L131.203 279.828L129.64 277.391L129.953 275.766L131.39 275.328L131.015 272.141L129.015 271.391L128.953 270.266L130.64 269.641L132.015 272.516L134.828 273.141L134.453 271.203L135.765 269.953L137.64 270.953L138.703 267.828L141.515 265.516L139.89 264.016L141.203 262.953L143.14 259.766L140.578 259.953L140.265 258.578L142.703 259.016L145.203 256.266L144.078 255.203L145.015 254.328L147.203 255.953L149.078 252.641L149.953 249.828L146.89 249.391L147.265 248.141L148.828 248.016L149.015 246.141L150.828 242.266L152.89 242.391L156.765 239.641L158.328 240.703L159.765 238.891L159.828 235.453L161.89 234.891L162.515 229.141L160.515 225.703L160.453 224.016L156.203 217.641L155.015 216.328L153.203 216.641L152.265 215.453L150.078 215.016L147.453 214.703L146.203 211.641L146.953 209.891L145.265 208.328L133.328 213.453L125.203 212.141L117.703 210.766L115.515 208.391L113.14 213.828L112.953 216.766L113.703 221.016L109.328 222.953L108.078 222.266L107.14 223.203L104.328 221.828L102.328 223.578L100.328 222.328L98.8899 222.953L102.39 227.391L102.078 229.391L102.265 232.203L103.578 231.703L105.078 232.453L104.89 234.953L113.765 242.891L121.515 252.141L114.953 253.141L111.515 257.703L110.14 259.641L109.578 262.391L107.453 261.766L105.078 262.766L102.015 262.016L95.0779 265.453L88.6399 266.328L86.5149 267.828L85.3279 266.578L82.2649 266.203L79.9529 266.641L80.0149 269.078L80.6399 272.141H79.5779L80.0779 274.266L81.2649 274.578L82.7029 278.016L86.7029 280.391L88.8899 278.766L89.8279 279.578L92.8279 276.953L95.5149 276.766L103.14 280.328L103.89 281.141L107.328 281.016Z" fill="#E9F0FC" stroke="black" stroke-width="0.4" stroke-linecap="square"/>
<path d="M111.515 257.703L110.14 259.641L109.578 262.391L107.453 261.766L105.078 262.766L102.015 262.016L95.0784 265.453L88.6404 266.328L86.5154 267.828L85.3284 266.578L82.2654 266.203L79.9534 266.641L80.0154 269.078L80.6404 272.141H79.5784L80.0784 274.266L81.2654 274.578L82.7034 278.016L86.7034 280.391L88.8904 278.766L89.8284 279.578L90.0154 282.266L91.2034 283.078L91.5154 286.141L85.1404 291.016L85.6404 292.828L85.4534 295.078V296.953L84.2654 296.016L81.4534 295.766L81.0154 297.891L79.5784 295.328L78.2034 296.141L77.5154 294.828L74.2654 299.703L73.6404 306.266L71.8904 308.016L70.8284 306.891L67.8284 306.016L63.5784 305.828L61.7654 305.141L56.3904 304.141L55.4534 304.766L54.3904 303.203L54.5784 301.391L52.8284 297.641L49.0154 293.078L52.2034 290.078L51.3284 289.766L50.8284 287.953L48.2034 289.266L45.9534 286.766L44.2034 284.203L41.5784 280.641L38.1404 280.828L32.2654 278.891L28.3284 264.141L30.0784 258.703L29.4534 252.453L31.8904 248.766L28.2034 237.391L33.0154 229.391L32.1404 224.641L34.8284 221.703L35.3904 219.516L36.7034 218.016L42.4534 209.328L46.4534 206.328L52.0154 204.703L53.8284 205.141L61.3904 206.953L65.9534 208.516L69.7034 200.953L69.3904 192.578L69.3284 190.016L68.5784 189.078L65.7034 188.078L61.3904 184.828L71.4534 165.766L73.5784 163.016L78.5154 167.453L79.4534 167.828L80.2034 168.953L81.4534 170.391L81.3284 171.953L82.7034 173.641L84.1404 173.766L85.5154 175.766L85.7654 178.141L89.0154 179.703L90.7034 182.453L89.5154 183.266L90.7654 184.078L91.2034 185.266L92.2654 184.891L92.3284 185.953L94.3904 187.766L94.8904 190.828L96.0784 190.891L95.8904 187.766L97.2034 187.016L98.0154 189.516L98.2034 192.016L102.953 195.266L103.078 198.266L106.14 197.891L115.515 208.391L113.14 213.828L112.953 216.766L113.703 221.016L109.328 222.953L108.078 222.266L107.14 223.203L104.328 221.828L102.328 223.578L100.328 222.328L98.8904 222.953L102.39 227.391L102.078 229.391L102.265 232.203L103.578 231.703L105.078 232.453L104.89 234.953L113.765 242.891L121.515 252.141L114.953 253.141L111.515 257.703ZM76.6404 241.328L74.5784 240.016L73.3284 240.391L71.4534 238.766L68.9534 237.766L65.9534 236.766L68.4534 241.703L66.5784 241.766L68.0154 243.141L70.2034 243.953L72.0154 245.391L72.3904 247.328L73.3284 250.578L73.2654 253.453L72.0154 253.703L73.0784 256.828L74.2654 257.516L75.1404 254.391L74.5154 250.016L74.0154 247.078L73.7654 244.703L75.1404 244.203L76.2654 243.641L75.3904 243.141L74.1404 242.141L74.4534 241.078L76.6404 241.328Z" fill="#E9F0FC" stroke="black" stroke-width="0.4" stroke-linecap="square"/>
<path fill-rule="evenodd" clip-rule="evenodd" d="M170.953 226.078L173.703 222.453L175.265 222.516L175.453 220.516L177.39 220.828L180.453 220.578L180.828 219.328L182.39 219.266L182.703 216.266L184.14 214.391L186.765 213.828L187.953 211.453L189.203 208.203L190.515 203.641L191.015 199.703L192.953 196.953L195.265 193.766L198.765 190.828L200.765 186.953L200.64 185.516L199.203 185.766L198.265 182.453L196.64 180.766L194.578 180.453L193.39 178.391L194.203 177.266L194.078 173.828L190.828 173.578L189.703 171.328L191.703 171.703L193.89 168.703L193.14 166.578L195.203 165.703L197.265 160.953L193.828 159.141L193.328 157.578L183.953 156.578L168.515 150.266L165.078 157.891L164.203 158.891L161.14 160.766L159.703 159.266L158.203 158.328L158.14 157.391L158.703 156.453L155.203 154.078L154.39 154.266L154.328 153.266L152.64 152.641L151.015 151.828L150.453 150.828L149.453 150.391L149.14 149.391L148.328 149.016H146.265L145.078 147.703L143.515 146.828L141.265 146.328L140.14 145.453L139.203 143.641L137.39 143.141L132.578 141.641L130.328 140.766L115.203 125.453L111.89 125.391L99.3284 115.453L93.4534 113.203L93.7034 115.766L86.3284 121.391L85.3284 121.516L77.9534 121.891L79.4534 134.891L77.7654 139.828L76.8284 149.703L76.7034 155.578L74.4534 157.766L73.5784 163.016L78.5154 167.453L79.4534 167.828L80.2034 168.953L81.4534 170.391L81.3284 171.953L82.7034 173.641L84.1404 173.766L85.5154 175.766L85.7654 178.141L89.0154 179.703L90.7034 182.453L89.5154 183.266L90.7654 184.078L91.2034 185.266L92.2654 184.891L92.3284 185.953L94.3904 187.766L94.8904 190.828L96.0784 190.891L95.8904 187.766L97.2034 187.016L98.0154 189.516L98.2034 192.016L102.953 195.266L103.078 198.266L106.14 197.891L115.515 208.391L117.703 210.766L125.203 212.141L133.328 213.453L145.265 208.328L146.953 209.891L146.203 211.641L147.453 214.703L150.078 215.016L152.265 215.453L153.203 216.641L155.015 216.328L156.203 217.641L160.453 224.016L160.515 225.703L162.515 229.141L164.515 229.641L166.14 228.891L164.89 226.328L165.703 225.141L167.89 227.078L169.64 230.266L171.14 229.141L170.39 227.016L170.953 226.078Z" fill="#E9F0FC" stroke="black" stroke-width="0.4" stroke-linecap="square"/>
<path d="M139.203 143.641L137.39 143.141L132.578 141.641L130.328 140.766L115.203 125.453L111.89 125.391L99.3284 115.453L93.4534 113.203L92.2034 107.891L96.2654 103.266L102.14 91.7664L103.828 89.7034L108.14 85.9534L108.89 79.8284L108.265 77.2664L103.89 69.5164L105.203 66.0164L108.578 65.3284L110.328 62.0164L113.015 50.1414L113.89 49.3284L120.39 44.4534L121.89 41.6414L127.453 44.5164L131.515 47.5784L131.89 46.2034L135.015 38.2664L133.515 29.5784L133.64 24.2034L137.89 22.1414L141.015 24.8914L146.703 24.0164L161.078 28.8914L165.64 23.1414L161.14 21.0164L162.953 19.2034L164.953 15.8914L166.203 10.5784L165.578 6.14137L162.203 1.51637L169.14 0.203369L172.265 0.766373L173.578 2.32837L174.453 2.70337L174.14 3.45337L173.453 4.45337L174.703 5.82837L175.89 5.57837L179.453 8.70337L180.515 10.7664L181.39 10.2664L182.328 10.7034L182.703 13.2664L183.953 13.8914L185.64 14.3914L187.328 15.7034L187.265 17.0164L189.265 16.9534L191.89 18.4534L192.015 19.7034L192.39 20.7034L193.89 21.1414H195.515L196.765 20.8284L197.39 22.0164L198.078 21.2664L201.015 22.5784L201.515 22.1414L202.203 22.9534L203.828 23.9534L204.203 23.2664L205.015 23.8284L205.078 24.8914L206.765 25.7034L207.265 25.7664L208.953 26.5164L209.203 27.9534L210.578 29.0784L210.703 30.5164L210.64 32.1414L211.328 33.2664L212.765 32.4534L213.828 33.5784L215.078 36.6414H216.203L216.515 37.7034L217.453 37.7664L217.953 39.2664L219.265 39.4534L219.703 41.7664L217.953 42.7034L217.578 45.4534L218.078 47.0164L218.203 51.2664L219.64 53.4534L219.328 56.1414L218.578 56.0784L219.14 57.2034L218.14 59.3284L219.765 60.5784L220.203 59.8914L222.64 60.8914L223.14 60.2034L224.265 61.2664L223.89 62.7034L224.015 64.4534L224.828 64.7034L224.265 66.8914L222.328 67.6414L222.015 69.4534L222.578 70.5164L222.265 71.8284L224.265 74.5164L224.578 76.5784L226.203 78.3914L227.078 78.5784L227.39 79.7664L228.39 80.2664L228.64 81.8914L230.39 83.9534L231.078 85.3914L230.953 86.9534L229.953 86.6414L229.828 87.8284L230.265 91.0784L230.015 92.5164L230.328 95.3284L229.39 96.5784L229.515 97.8914L228.265 98.3914V99.7034L227.14 100.516V101.578L228.203 103.078L227.578 106.703L229.828 111.703L232.14 112.391L233.453 112.453L233.39 113.828L233.953 114.453V115.516L235.515 117.891L236.203 120.328L238.828 126.453L233.703 127.516L232.14 126.391L230.953 126.328L230.765 127.391L229.64 127.891L227.703 127.078L226.953 128.953L224.39 128.141L223.265 127.703L222.578 128.891L221.89 132.141L220.078 130.641L216.89 129.453L215.703 126.516L214.203 125.641L213.703 126.266L214.453 129.703L216.203 131.578L216.328 132.953L215.078 132.453L213.39 130.516L211.515 130.641L211.453 129.203L209.953 127.141L208.328 128.016L207.953 130.703L208.203 133.641L208.64 135.953L209.14 138.016L210.203 139.766L209.39 140.203L207.265 139.578L206.328 140.078L206.39 141.766L204.515 141.828L201.703 142.078L204.015 144.391L202.953 146.391L201.078 147.203L198.265 147.078L195.765 148.078L195.078 149.266L199.078 151.828L198.828 153.016L197.39 154.203L198.328 158.078L197.265 160.953L193.828 159.141L193.328 157.578L183.953 156.578L168.515 150.266L165.078 157.891L164.203 158.891L161.14 160.766L159.703 159.266L158.203 158.328L158.14 157.391L158.703 156.453L155.203 154.078L154.39 154.266L154.328 153.266L152.64 152.641L151.015 151.828L150.453 150.828L149.453 150.391L149.14 149.391L148.328 149.016H146.265L145.078 147.703L143.515 146.828L141.265 146.328L140.14 145.453L139.203 143.641ZM142.89 139.203L141.953 138.141L142.265 136.391L140.953 135.578L138.828 135.641L134.39 130.266L135.14 128.016L134.328 125.453L136.765 124.953L137.328 124.016L136.328 122.828L134.828 123.578L133.265 122.016L132.265 119.641L129.64 118.266L127.765 116.203L125.703 114.203L123.89 112.016L120.078 110.141L119.64 111.266L123.89 113.828L126.14 116.766L126.39 118.641L128.953 119.828L131.078 122.141L133.015 124.016L131.578 124.578L129.64 125.641L131.453 128.203L131.64 129.641L131.015 131.141L131.39 133.703L132.828 133.641L133.64 131.266L136.265 135.078L138.015 140.203L139.578 139.766L140.64 140.391L144.515 141.641L144.64 140.578L142.89 139.203Z" fill="#E9F0FC" stroke="black" stroke-width="0.4" stroke-linecap="square"/>
</svg>
