<svg width="1280" height="720" viewBox="0 0 1280 720" fill="none" xmlns="http://www.w3.org/2000/svg">
<g filter="url(#filter0_i_50_110)">
<path d="M337.649 352.559C198.762 256.11 113.887 232.962 -25 337.128V429.719C113.887 325.554 198.762 348.701 337.649 445.151C476.536 541.6 623.139 445.151 727.304 375.707C812.18 319.124 962.641 337.128 1070.66 429.719C1133.54 483.61 1259.7 476.014 1306 398.855V306.264C1259.7 383.423 1133.54 391.019 1070.66 337.128C962.641 244.536 812.18 226.532 727.304 283.116C623.139 352.559 476.536 449.009 337.649 352.559Z" fill="#FFF2CD"/>
<path d="M337.649 205.956C198.762 109.507 113.887 86.3593 -25 190.525V283.116C113.887 178.951 198.762 202.099 337.649 298.548C476.536 394.997 623.139 298.548 727.304 229.104C812.18 172.521 962.641 190.525 1070.66 283.116C1133.54 337.007 1259.7 329.411 1306 252.252V159.661C1259.7 236.82 1133.54 244.416 1070.66 190.525C962.641 97.9333 812.18 79.9294 727.304 136.513C623.139 205.956 476.536 302.406 337.649 205.956Z" fill="#FFF2CD"/>
<path d="M337.649 51.6376C198.762 -44.8117 113.887 -67.9595 -25 36.2057V128.797C113.887 24.6318 198.762 47.7797 337.649 144.229C476.536 240.678 623.139 144.229 727.304 74.7854C812.18 18.2018 962.641 36.2058 1070.66 128.797C1133.54 182.688 1259.7 175.093 1306 97.9331V5.34177C1259.7 82.5012 1133.54 90.097 1070.66 36.2058C962.641 -56.3855 812.18 -74.3895 727.304 -17.806C623.139 51.6375 476.536 148.087 337.649 51.6376Z" fill="#FFF2CD"/>
<path d="M337.649 506.878C198.762 410.429 113.887 387.281 -25 491.446V584.038C113.887 479.872 198.762 503.02 337.649 599.47C476.536 695.919 623.139 599.469 727.304 530.026C812.18 473.442 962.641 491.446 1070.66 584.038C1133.54 637.929 1259.7 630.333 1306 553.174V460.582C1259.7 537.742 1133.54 545.338 1070.66 491.446C962.641 398.855 812.18 380.851 727.304 437.435C623.139 506.878 476.536 603.328 337.649 506.878Z" fill="#FFF2CD"/>
<path d="M337.649 653.481C198.762 557.032 113.887 533.884 -25 638.049V730.641C113.887 626.475 198.762 649.623 337.649 746.072C476.536 842.522 623.139 746.072 727.304 676.629C812.18 620.045 962.641 638.049 1070.66 730.641C1133.54 784.532 1259.7 776.936 1306 699.777V607.185C1259.7 684.345 1133.54 691.941 1070.66 638.049C962.641 545.458 812.18 527.454 727.304 584.038C623.139 653.481 476.536 749.93 337.649 653.481Z" fill="#FFF2CD"/>
</g>
<defs>
<filter id="filter0_i_50_110" x="-25" y="-50" width="1331" height="840.733" filterUnits="userSpaceOnUse" color-interpolation-filters="sRGB">
<feFlood flood-opacity="0" result="BackgroundImageFix"/>
<feBlend mode="normal" in="SourceGraphic" in2="BackgroundImageFix" result="shape"/>
<feColorMatrix in="SourceAlpha" type="matrix" values="0 0 0 0 0 0 0 0 0 0 0 0 0 0 0 0 0 0 127 0" result="hardAlpha"/>
<feOffset dy="4"/>
<feGaussianBlur stdDeviation="2"/>
<feComposite in2="hardAlpha" operator="arithmetic" k2="-1" k3="1"/>
<feColorMatrix type="matrix" values="0 0 0 0 0 0 0 0 0 0 0 0 0 0 0 0 0 0 0.25 0"/>
<feBlend mode="normal" in2="shape" result="effect1_innerShadow_50_110"/>
</filter>
</defs>
</svg>
